<?xml version="1.0" ?>
<!-- Uploaded to: SVG Repo, www.svgrepo.com, Generator: SVG Repo Mixer Tools -->
<svg width="800px" height="800px" viewBox="0 0 32 32" xmlns="http://www.w3.org/2000/svg">
<defs>
<style>.cls-1{fill:#ff005c;}</style>
</defs>
<title/>
<g data-name="Layer 26" id="Layer_26">
<polygon class="cls-1" points="5 21 18 17 18 21 15 24 8 24 5 21"/>
<path d="M27,2H11L10,3V5.5H5l-1,1V20.66l.23.64L7.29,25l.77.37h.06v.7l1,1h1.47V29.5h2V27.09h1.47l1-1v-.7h.06l.77-.37L19,21.3l.23-.64V6.5l-1-1H12V4H26V30h2V3ZM17.18,8.91H15.71v2h1.47v1.4H15.71v2h1.47v1.41H15.71v2h1.47V20.3l-2.54,3.09H8.53L6,20.3V7.5H17.18Z"/>
</g>
</svg>