<?xml version="1.0" encoding="iso-8859-1"?>
<!-- Uploaded to: SVG Repo, www.svgrepo.com, Generator: SVG Repo Mixer Tools -->
<svg fill="#000000" height="800px" width="800px" version="1.1" id="Layer_1" xmlns="http://www.w3.org/2000/svg" xmlns:xlink="http://www.w3.org/1999/xlink" 
	 viewBox="0 0 512 512" xml:space="preserve">
<g>
	<g>
		<path d="M96.4,293.253H45.829c-5.771,0-10.449,4.678-10.449,10.449c0,5.771,4.678,10.449,10.449,10.449H96.4
			c5.771,0,10.449-4.678,10.449-10.449C106.849,297.931,102.171,293.253,96.4,293.253z"/>
	</g>
</g>
<g>
	<g>
		<path d="M96.4,352.362H45.829c-5.771,0-10.449,4.678-10.449,10.449c0,5.771,4.678,10.449,10.449,10.449H96.4
			c5.771,0,10.449-4.678,10.449-10.449C106.849,357.04,102.171,352.362,96.4,352.362z"/>
	</g>
</g>
<g>
	<g>
		<path d="M96.4,322.807H45.829c-5.771,0-10.449,4.678-10.449,10.449c0,5.771,4.678,10.449,10.449,10.449H96.4
			c5.771,0,10.449-4.678,10.449-10.449C106.849,327.485,102.171,322.807,96.4,322.807z"/>
	</g>
</g>
<g>
	<g>
		<path d="M139.119,271.018l-43.305-43.305c-1.959-1.959-4.617-3.06-7.388-3.06H10.5c-5.771,0-10.449,4.678-10.449,10.449v157.78
			c0,5.771,4.678,10.449,10.449,10.449h81.153c5.771,0,10.449-4.678,10.449-10.449c0-5.771-4.678-10.449-10.449-10.449H20.949
			V245.551h57.026v32.856c0,5.771,4.678,10.449,10.449,10.449h32.856v69.517c0,5.771,4.678,10.449,10.449,10.449
			s10.449-4.678,10.449-10.449v-79.966C142.178,275.636,141.078,272.979,139.119,271.018z M98.873,267.958v-7.63l7.63,7.63H98.873z"
			/>
	</g>
</g>
<g>
	<g>
		<path d="M296.584,446.171h-0.137c-5.771,0-10.449,4.678-10.449,10.449c0,5.771,4.678,10.449,10.449,10.449h0.137
			c5.771,0,10.449-4.678,10.449-10.449C307.033,450.849,302.355,446.171,296.584,446.171z"/>
	</g>
</g>
<g>
	<g>
		<path d="M369.59,446.171h-39.203c-5.771,0-10.449,4.678-10.449,10.449c0,5.771,4.678,10.449,10.449,10.449h39.203
			c5.771,0,10.449-4.678,10.449-10.449C380.039,450.849,375.361,446.171,369.59,446.171z"/>
	</g>
</g>
<g>
	<g>
		<path d="M263.39,449.328l-0.097-0.097c-4.081-4.08-10.698-4.08-14.778,0c-4.08,4.081-4.08,10.698,0,14.778l0.097,0.097
			c2.04,2.041,4.715,3.06,7.388,3.06c2.675,0,5.349-1.02,7.39-3.06C267.47,460.025,267.47,453.408,263.39,449.328z"/>
	</g>
</g>
<g>
	<g>
		<path d="M10.586,491.102h-0.137C4.678,491.102,0,495.78,0,501.551S4.678,512,10.449,512h0.137c5.771,0,10.449-4.678,10.449-10.449
			S16.357,491.102,10.586,491.102z"/>
	</g>
</g>
<g>
	<g>
		<path d="M501.551,491.102h-0.137c-5.771,0-10.449,4.678-10.449,10.449S495.643,512,501.414,512h0.137
			c5.771,0,10.449-4.678,10.449-10.449S507.322,491.102,501.551,491.102z"/>
	</g>
</g>
<g>
	<g>
		<path d="M294.106,212.114c-6.441,0-11.68,5.239-11.68,11.68c0,6.44,5.239,11.679,11.68,11.679s11.68-5.239,11.68-11.679
			C305.786,217.353,300.547,212.114,294.106,212.114z"/>
	</g>
</g>
<g>
	<g>
		<path d="M217.894,212.114c-6.441,0-11.68,5.239-11.68,11.68c0,6.44,5.239,11.679,11.68,11.679c6.44,0,11.679-5.239,11.68-11.679
			C229.573,217.353,224.334,212.114,217.894,212.114z"/>
	</g>
</g>
<g>
	<g>
		<path d="M266.255,261.345h-20.422c-5.771,0-10.449,4.678-10.449,10.449c0,11.391,9.268,20.66,20.66,20.66
			s20.659-9.267,20.66-20.66C276.704,266.023,272.026,261.345,266.255,261.345z"/>
	</g>
</g>
<g>
	<g>
		<path d="M242.139,47.937c-1.861-5.463-7.8-8.381-13.261-6.52c-30.344,10.34-53.756,35.418-64.233,68.804
			c-1.728,5.506,1.334,11.371,6.841,13.098c1.042,0.327,2.095,0.482,3.132,0.482c4.444,0,8.566-2.858,9.966-7.322
			c4.973-15.845,18.215-44.097,51.035-55.281C241.082,59.337,244.001,53.4,242.139,47.937z"/>
	</g>
</g>
<g>
	<g>
		<path d="M265.818,35.61h-0.142c-5.771,0-10.449,4.678-10.449,10.449c0,5.771,4.678,10.449,10.449,10.449h0.142
			c5.771,0,10.449-4.678,10.449-10.449C276.267,40.288,271.589,35.61,265.818,35.61z"/>
	</g>
</g>
<g>
	<g>
		<path d="M483.839,336.833l-0.03-121.575c-0.001-7.259-2.824-14.08-7.95-19.206c-5.125-5.125-11.945-7.949-19.203-7.951
			c-0.004,0-0.008,0-0.013,0c-7.247,0-14.062,2.823-19.188,7.949c-5.128,5.128-7.952,11.946-7.951,19.197l0.028,121.591
			c0,1.921,0.528,3.714,1.431,5.259c-0.003,0.002-0.005,0.003-0.007,0.005l16.704,28.623c1.872,3.209,5.309,5.183,9.025,5.183
			c3.716,0,7.152-1.974,9.025-5.182l16.704-28.623c-0.004-0.002-0.007-0.003-0.01-0.005
			C483.329,340.511,483.839,338.702,483.839,336.833z M452.233,210.828c1.179-1.179,2.745-1.828,4.411-1.828
			c0.002,0,0.003,0,0.006,0c1.677,0,3.252,0.65,4.431,1.83c1.017,1.017,1.639,2.326,1.793,3.746l-6.394-0.001l-6.042-0.001
			C450.588,213.159,451.212,211.848,452.233,210.828z M450.428,326.386l-0.024-90.915l12.515,0.002l0.02,90.912H450.428z"/>
	</g>
</g>
<g>
	<g>
		<path d="M467.61,421.94h-57.97v-1.489c0-20.367-12.292-39.713-29.891-47.047l-67.247-28.019c-2.391-0.996-3.936-3.313-3.936-5.905
			V323.21c0,0,27.69-15.885,27.873-16.006c13.676-9.031,22.657-25.093,24.022-42.965c0.007-0.101,0.007-0.203,0.011-0.304
			c13.577-4.408,23.423-17.174,23.423-32.203c0-4.585-0.932-9.049-2.694-13.196c39.42-69.886,31.557-118.123,17.759-146.476
			c-18.355-37.715-55.961-58.867-83.133-62.561c-2.624-0.356-5.318-0.484-8.042-0.393C294.548,3.171,278.882,0,261.603,0
			c-59.486,0-93.629,29.139-111.798,53.583c-21.003,28.26-29.15,60.652-29.898,82.834c-13.013,19.431-17.503,40.471-12.988,61.047
			c6.022,27.435,26.74,49.093,44.594,60.799c0.004,2.379,0.014,5.802,0.027,5.975c1.372,17.945,10.289,34.006,23.854,42.965
			c0.187,0.123,28.042,16.056,28.042,16.056v16.221c0,2.59-1.545,4.908-3.936,5.905l-67.249,28.02
			c-17.599,7.334-29.89,26.679-29.89,47.045v70.651H44.39c-5.771,0-10.449,4.678-10.449,10.449S38.619,512,44.39,512H467.61
			c5.771,0,10.449-4.678,10.449-10.449v-69.162C478.059,426.618,473.381,421.94,467.61,421.94z M343.533,41.845
			c13.821,8.328,27.803,21.21,36.636,39.36c15.843,32.553,11.051,74.17-13.782,120.887c-1.911-1.055-3.923-1.925-6.007-2.594
			l-0.101-8.091c-0.022-33.912-16.152-44.173-36.473-52.411c5.908-7.392,11.306-15.787,16.18-25.194
			C353.064,88.09,354.263,62.749,343.533,41.845z M151.324,227.238v4.47c-11.004-10.1-20.709-23.765-23.992-38.725
			c-3.473-15.821,0.382-31.678,11.459-47.13c1.273-1.775,1.957-3.904,1.957-6.088c0-17.973,6.765-48.064,25.831-73.715
			c22.266-29.96,54.238-45.152,95.023-45.152c28.468,0,50.941,10.021,61.656,27.491c9.36,15.261,8.685,35.127-1.863,55.869
			c-19.148,36.944-45.057,54.152-81.535,54.152c-25.109,0-46.926,6.57-63.095,18.999
			C160.359,190.021,151.324,207.717,151.324,227.238z M186.654,289.593c-7.985-5.406-13.285-15.293-14.246-26.572
			c0,0-0.101-8.616-0.275-9.373c0.057-0.443,0-26.412,0-26.412c0-28.221,27.903-47.93,67.728-47.93
			c26.538,0,49.331-8.055,68.193-24.018c23.42,8.919,31.327,12.041,31.327,36.188c0,0.044,0,0.087,0.001,0.131l0.21,16.849
			c0.071,5.72,4.728,10.318,10.448,10.318c4.238,0,8.218,2.086,10.646,5.58c1.511,2.173,2.309,4.724,2.309,7.377
			c0,7.144-5.813,12.956-12.956,12.956c-5.771,0-10.449,4.678-10.449,10.449c0,0.168,0,7.883,0,7.883
			c-0.949,11.05-6.443,21.176-14.42,26.577l-56.101,32.168c-0.191,0.109-0.377,0.225-0.561,0.346c-7.831,5.173-17.185,5.174-25.02,0
			c-0.187-0.124-0.377-0.241-0.573-0.352L186.654,289.593z M256.051,383.917l-33.835-33.906c1.365-3.271,2.118-6.833,2.118-10.532
			v-4.275l7.939,4.539c7.334,4.764,15.53,7.145,23.728,7.145c8.199,0,16.399-2.383,23.734-7.149l7.932-4.548v4.288
			c0,3.726,0.765,7.312,2.148,10.603L256.051,383.917z M287.936,381.551l-4.485,28.826l-12.45-11.857L287.936,381.551z
			 M241.1,398.52l-12.45,11.857l-4.485-28.826L241.1,398.52z M388.741,432.389v58.713H123.258v-70.651
			c0-11.777,7.322-23.71,17.031-27.756l60.536-25.223l10.244,65.851c0.598,3.842,3.28,7.035,6.962,8.287
			c1.1,0.374,2.236,0.556,3.361,0.556c2.642,0,5.234-1.002,7.208-2.883l27.45-26.143l27.449,26.143
			c1.975,1.88,4.566,2.883,7.208,2.883c1.126,0,2.261-0.182,3.361-0.556c3.681-1.252,6.363-4.444,6.962-8.287l10.238-65.811
			l60.441,25.183c9.709,4.046,17.031,15.978,17.031,27.756V432.389z M457.161,491.102H409.64v-13.683h47.521V491.102z
			 M457.161,456.521H409.64v-13.683h47.521V456.521z"/>
	</g>
</g>
</svg>